<svg id="brands-and-logotypes" xmlns="http://www.w3.org/2000/svg" width="15.163" height="15.163" viewBox="0 0 15.163 15.163">
  <g id="Group_29" data-name="Group 29" transform="translate(0 0)">
    <g id="Group_28" data-name="Group 28">
      <path id="Path_98" data-name="Path 98" d="M10.425,0H4.738A4.739,4.739,0,0,0,0,4.738v5.686a4.739,4.739,0,0,0,4.738,4.739h5.686a4.739,4.739,0,0,0,4.738-4.739V4.738A4.739,4.739,0,0,0,10.425,0Zm3.317,10.425a3.321,3.321,0,0,1-3.317,3.317H4.738a3.321,3.321,0,0,1-3.317-3.317V4.738A3.321,3.321,0,0,1,4.738,1.422h5.686a3.321,3.321,0,0,1,3.317,3.317Z" transform="translate(0 0)" fill="#2667b1"/>
    </g>
  </g>
  <g id="Group_31" data-name="Group 31" transform="translate(3.791 3.791)">
    <g id="Group_30" data-name="Group 30">
      <path id="Path_99" data-name="Path 99" d="M131.791,128a3.791,3.791,0,1,0,3.791,3.791A3.791,3.791,0,0,0,131.791,128Zm0,6.16a2.369,2.369,0,1,1,2.369-2.369A2.373,2.373,0,0,1,131.791,134.16Z" transform="translate(-128 -128)" fill="#2667b1"/>
    </g>
  </g>
  <g id="Group_33" data-name="Group 33" transform="translate(11.152 3.001)">
    <g id="Group_32" data-name="Group 32">
      <ellipse id="Ellipse_11" data-name="Ellipse 11" cx="0.505" cy="0.505" rx="0.505" ry="0.505" fill="#2667b1"/>
    </g>
  </g>
</svg>
