<svg id="Group_130" data-name="Group 130" xmlns="http://www.w3.org/2000/svg" width="38" height="38" viewBox="0 0 38 38">
  <path id="Path_678" data-name="Path 678" d="M19,0A19,19,0,1,1,0,19,19,19,0,0,1,19,0Z" fill="#2667b1"/>
  <g id="logotype" transform="translate(15.109 11.485)">
    <path id="Path_105" data-name="Path 105" d="M29.966,0,28,0a3.453,3.453,0,0,0-3.637,3.732V5.452H22.386a.309.309,0,0,0-.309.309V8.254a.309.309,0,0,0,.309.309h1.977v6.29a.309.309,0,0,0,.309.309h2.579a.309.309,0,0,0,.309-.309V8.564h2.312a.309.309,0,0,0,.309-.309V5.762a.309.309,0,0,0-.309-.309H27.561V3.994c0-.7.167-1.057,1.08-1.057h1.325a.309.309,0,0,0,.309-.309V.312A.309.309,0,0,0,29.966,0Z" transform="translate(-22.077)" fill="#fff"/>
  </g>
</svg>
