<svg id="logotype" xmlns="http://www.w3.org/2000/svg" width="8.198" height="15.163" viewBox="0 0 8.198 15.163">
  <path id="Path_105" data-name="Path 105" d="M29.966,0,28,0a3.453,3.453,0,0,0-3.637,3.732V5.452H22.386a.309.309,0,0,0-.309.309V8.254a.309.309,0,0,0,.309.309h1.977v6.29a.309.309,0,0,0,.309.309h2.579a.309.309,0,0,0,.309-.309V8.564h2.312a.309.309,0,0,0,.309-.309V5.762a.309.309,0,0,0-.309-.309H27.561V3.994c0-.7.167-1.057,1.08-1.057h1.325a.309.309,0,0,0,.309-.309V.312A.309.309,0,0,0,29.966,0Z" transform="translate(-22.077)" fill="#fff"/>
</svg>
