<svg xmlns="http://www.w3.org/2000/svg" width="24" height="24" viewBox="0 0 24 24">
  <path id="Path_7683" data-name="Path 7683" d="M14,26A12,12,0,1,1,26,14,12,12,0,0,1,14,26Zm-2.748-2.8a21.48,21.48,0,0,1-2.019-8H4.474A9.61,9.61,0,0,0,11.252,23.2Zm.385-8A19.086,19.086,0,0,0,14,23.3a19.086,19.086,0,0,0,2.363-8.1Zm11.889,0H18.767a21.48,21.48,0,0,1-2.019,8A9.61,9.61,0,0,0,23.526,15.2ZM4.474,12.8H9.233a21.48,21.48,0,0,1,2.019-8A9.61,9.61,0,0,0,4.474,12.8Zm7.163,0h4.726A19.086,19.086,0,0,0,14,4.7,19.086,19.086,0,0,0,11.637,12.8Zm5.111-8a21.48,21.48,0,0,1,2.019,8h4.758A9.61,9.61,0,0,0,16.748,4.8Z" transform="translate(-2 -2)" fill="#fff"/>
</svg>
