<svg id="XMLID_826_" xmlns="http://www.w3.org/2000/svg" width="15.163" height="12.415" viewBox="0 0 15.163 12.415">
  <path id="XMLID_827_" d="M14.817,29.53a5.748,5.748,0,0,1-.733.267,3.242,3.242,0,0,0,.66-1.161.245.245,0,0,0-.358-.285,5.772,5.772,0,0,1-1.706.674,3.256,3.256,0,0,0-5.534,2.327,3.32,3.32,0,0,0,.027.421,8.334,8.334,0,0,1-5.72-3.034.245.245,0,0,0-.4.031,3.26,3.26,0,0,0,.334,3.747,2.757,2.757,0,0,1-.436-.195.245.245,0,0,0-.363.208c0,.014,0,.029,0,.043a3.267,3.267,0,0,0,1.593,2.8c-.083-.008-.165-.02-.248-.036a.245.245,0,0,0-.279.315,3.254,3.254,0,0,0,2.384,2.182,5.759,5.759,0,0,1-3.078.879,5.889,5.889,0,0,1-.689-.04.245.245,0,0,0-.161.449,8.778,8.778,0,0,0,4.747,1.391A8.445,8.445,0,0,0,11.4,37.638,9.109,9.109,0,0,0,13.668,31.7c0-.089,0-.18,0-.269a6.328,6.328,0,0,0,1.456-1.543.245.245,0,0,0-.3-.36Z" transform="translate(0.002 -28.097)" fill="#2667b1"/>
</svg>
